<?xml version="1.0" encoding="UTF-8"?>
<svg width="124px" height="114px" viewBox="0 0 124 114" version="1.1" xmlns="http://www.w3.org/2000/svg" xmlns:xlink="http://www.w3.org/1999/xlink">
    <title>Group 2</title>
    <defs>
        <path d="M0.65,107.05 C41.0912321,115.563585 82.8495032,115.686113 123.34,107.41 L123.34,0.83 L0,0.83 L0.65,107.05 Z" id="path-1"></path>
    </defs>
    <g id="Page-1" stroke="none" stroke-width="1" fill="none" fill-rule="evenodd">
        <g id="Group-2">
            <mask id="mask-2" fill="white">
                <use xlink:href="#path-1"></use>
            </mask>
            <g id="Mask" fill-rule="nonzero"></g>
            <g id="palette.ThoughtWorks" mask="url(#mask-2)" fill-rule="nonzero">
                <path d="M108.25,74.35 C108.25,100.44 87.1,106.76 61,106.76 C34.9,106.76 13.76,100.44 13.76,74.35 C13.5120437,57.3071767 22.4622664,41.4517719 37.1818455,32.8579776 C51.9014245,24.2641832 70.1085755,24.2641832 84.8281545,32.8579776 C99.5477336,41.4517719 108.497956,57.3071767 108.25,74.35 L108.25,74.35 Z" id="Path" fill="#7DCED5"></path>
                <g id="Group" transform="translate(22.000000, 0.000000)">
                    <path d="M57.07,113.51 C47.71,111.61 39.18,106.4 31.34,101.21 C18.49,92.72 6.43,81.73 1.87,66.56 C-1.48,55.42 0.1,41.83 7.8,33 C13.8632468,26.0623357 21.8795886,21.1166013 30.8,18.81 C37.65,17.13 46.1,16.45 52.74,19.31 C56.5524117,20.9982602 59.7759681,23.7831902 62,27.31 C64.7,32.02 66.27,37.31 65.25,42.71 C63.91,49.86 59.58,55.71 56.77,62.29 C55.1385734,65.8370631 54.1531307,69.6467643 53.86,73.54 C53.67,79.21 57.69,83.39 62.31,86.18 C67.43,89.27 73.23,93.06 76.25,98.39 C80.32,105.57 73.65,112.67 66.98,113.86 C63.6841555,114.36937 60.3216977,114.250615 57.07,113.51 L57.07,113.51 Z" id="Path" fill="#702269"></path>
                    <path d="M40.89,26.06 C46.306229,25.6968103 50.9915692,29.7926689 51.3555586,35.2088442 C51.719548,40.6250195 47.6243812,45.3109644 42.2082597,45.6757534 C36.7921382,46.0405425 32.1055887,41.9460676 31.74,36.53 C31.564369,33.9280884 32.4298384,31.3630186 34.1459128,29.3993794 C35.8619872,27.4357402 38.2880109,26.2344785 40.89,26.06 Z" id="Path" fill="#0078BF"></path>
                    <path d="M21.71,46.39 C27.1267436,46.0319285 31.8082923,50.1324879 32.1669188,55.5491948 C32.5255452,60.9659017 28.4254655,65.6478705 23.0087953,66.0070519 C17.5921252,66.3662333 12.9097364,62.2666333 12.55,56.85 C12.3772013,54.2481302 13.2452781,51.6842125 14.9631922,49.7224896 C16.6811064,47.7607666 19.1080772,46.561999 21.71,46.39 Z" id="Path" fill="#00AA5B"></path>
                    <path d="M34.14,72.45 C38.1071325,72.1799357 41.8462436,74.3264766 43.613458,77.8885025 C45.3806724,81.4505283 44.8278849,85.7263926 42.2129088,88.721885 C39.5979326,91.7173774 35.4358648,92.8424469 31.6678425,91.572375 C27.8998201,90.302303 25.2680669,86.887268 25,82.92 C24.634132,77.5053203 28.7255052,72.8185941 34.14,72.45 L34.14,72.45 Z" id="Path" fill="#ED312F"></path>
                    <path d="M57.45,90.05 C60.8117243,89.8229906 63.9791438,91.6435135 65.4751405,94.6625725 C66.9711371,97.6816315 66.5010616,101.304597 64.2841324,103.841908 C62.0672032,106.379219 58.5400636,107.331131 55.3475861,106.253722 C52.1551087,105.176312 49.9260792,102.281787 49.7,98.92 C49.3970215,94.3326421 52.8634682,90.3652379 57.45,90.05 Z" id="Path" fill="#FFFFFF"></path>
                    <path d="M28.13,52 C22.49,61.62 19.88,70.89 12.67,66.67 C5.46,62.45 4.18,51.21 9.83,41.58 C15.48,31.95 25.89,27.58 33.1,31.81 C40.31,36.04 33.77,42.33 28.13,52 Z" id="Path" fill="#FFFFFF" opacity="0.3"></path>
                    <polygon id="Path" fill="#F58A33" points="46.92 177.41 42.35 176.76 57.17 61.21 64.91 62.31"></polygon>
                    <polygon id="Path" fill="#EEEEEE" points="66.93 30.84 64.01 30.43 57.17 61.21 64.91 62.31"></polygon>
                    <path d="M68.73,0.83 C69.25,7.19 66.32,9.57 63.04,17.01 C61.1125267,21.3698464 61.4876477,26.4039707 64.04,30.43 L66.96,30.84 C76.62,21.22 68.73,0.83 68.73,0.83 Z" id="Path" fill="#5F3C25"></path>
                    <polygon id="Path" fill="#F58A33" points="39.18 178.99 34.75 177.7 65.63 65.36 73.14 67.54"></polygon>
                    <polygon id="Path" fill="#EEEEEE" points="79.55 36.67 76.72 35.85 65.63 65.36 73.14 67.54"></polygon>
                    <path d="M85.54,7.2 C85.16,13.57 81.93,15.53 77.64,22.43 C75.1119532,26.4691582 74.7668178,31.5036338 76.72,35.85 L79.55,36.67 C90.49,28.51 85.54,7.2 85.54,7.2 Z" id="Path" fill="#5F3C25"></path>
                </g>
                <path d="M0.65,107.05 C41.0912321,115.563585 82.8495032,115.686113 123.34,107.41 L116.14,73.83 C80.1676178,80.3240344 43.3135454,80.2156002 7.38,73.51 L0.65,107.05 Z" id="Path" fill="#BDBD32"></path>
                <g id="P" transform="translate(19.016372, 91.078252) rotate(8.910000) translate(-19.016372, -91.078252) translate(11.016372, 76.078252)" fill="#FFFFFF" font-family="Arial-Black, Arial Black" font-size="20.63" font-weight="700">
                    <g id="Group">
                        <text id="P">
                            <tspan x="0.0060003" y="23.6441919">P</tspan>
                        </text>
                    </g>
                </g>
                <g id="A" transform="translate(32.996847, 93.049527) rotate(6.250000) translate(-32.996847, -93.049527) translate(23.996847, 78.049527)" fill="#FFFFFF" font-family="Arial-Black, Arial Black" font-size="20.63" font-weight="700">
                    <g id="Group">
                        <text id="A">
                            <tspan x="0.0448473" y="23.49589">A</tspan>
                        </text>
                    </g>
                </g>
                <g id="L" transform="translate(47.511260, 94.024316) rotate(3.433630) translate(-47.511260, -94.024316) translate(40.011260, 79.024316)" fill="#FFFFFF" font-family="Arial-Black, Arial Black" font-size="20.63" font-weight="700">
                    <g id="Group">
                        <text id="L">
                            <tspan x="0.0874113" y="23.673923">L</tspan>
                        </text>
                    </g>
                </g>
                <g id="E" transform="translate(60.996867, 94.996534) rotate(0.572939) translate(-60.996867, -94.996534) translate(52.996867, 79.996534)" fill="#FFFFFF" font-family="Arial-Black, Arial Black" font-size="20.63" font-weight="700">
                    <g id="Group">
                        <text id="E">
                            <tspan x="0.844625" y="23.184275">E</tspan>
                        </text>
                    </g>
                </g>
                <g id="T" transform="translate(75.982462, 94.012371) rotate(-2.430000) translate(-75.982462, -94.012371) translate(67.982462, 79.012371)" fill="#FFFFFF" font-family="Arial-Black, Arial Black" font-size="20.63" font-weight="700">
                    <g id="Group">
                        <text id="T">
                            <tspan x="0.7828661" y="23.919653">T</tspan>
                        </text>
                    </g>
                </g>
                <g id="T" transform="translate(90.962745, 93.018074) rotate(-5.350000) translate(-90.962745, -93.018074) translate(82.962745, 78.018074)" fill="#FFFFFF" font-family="Arial-Black, Arial Black" font-size="20.63" font-weight="700">
                    <g id="Group">
                        <text id="T">
                            <tspan x="0.6747922" y="23.907732">T</tspan>
                        </text>
                    </g>
                </g>
                <g id="E" transform="translate(106.050620, 91.991467) rotate(-8.230000) translate(-106.050620, -91.991467) translate(98.050620, 76.991467)" fill="#FFFFFF" font-family="Arial-Black, Arial Black" font-size="20.63" font-weight="700">
                    <g id="Group">
                        <text id="E">
                            <tspan x="0.4660098" y="23.143934">E</tspan>
                        </text>
                    </g>
                </g>
            </g>
        </g>
    </g>
</svg>